<mxGraphModel dx="782" dy="521" grid="1" gridSize="10" guides="1" tooltips="1" connect="1" arrows="1" fold="1" page="1" pageScale="1" pageWidth="827" pageHeight="1169" math="0" shadow="0">
  <root>
    <mxCell id="0" />
    <mxCell id="1" parent="0" />
    <mxCell id="_Vjc8NUrI6-QFcDWvdmF-1" value="T01. s&#39;inscrire" style="rounded=0;whiteSpace=wrap;html=1;fillColor=#f8cecc;" parent="1" vertex="1">
      <mxGeometry x="100" y="110" width="120" height="60" as="geometry" />
    </mxCell>
    <mxCell id="_Vjc8NUrI6-QFcDWvdmF-2" value="T02. creer un projet" style="rounded=0;whiteSpace=wrap;html=1;fillColor=#66FF66;" parent="1" vertex="1">
      <mxGeometry x="270" y="110" width="120" height="60" as="geometry" />
    </mxCell>
    <mxCell id="_Vjc8NUrI6-QFcDWvdmF-3" value="T03. collaborer" style="rounded=0;whiteSpace=wrap;html=1;fillColor=#FFD966;" parent="1" vertex="1">
      <mxGeometry x="440" y="110" width="120" height="60" as="geometry" />
    </mxCell>
    <mxCell id="_Vjc8NUrI6-QFcDWvdmF-5" value="Renseigner les informations " style="whiteSpace=wrap;html=1;aspect=fixed;" parent="1" vertex="1">
      <mxGeometry x="110" y="210" width="80" height="80" as="geometry" />
    </mxCell>
    <mxCell id="_Vjc8NUrI6-QFcDWvdmF-6" value="Donner une description et un nom " style="whiteSpace=wrap;html=1;aspect=fixed;" parent="1" vertex="1">
      <mxGeometry x="300" y="210" width="80" height="80" as="geometry" />
    </mxCell>
    <mxCell id="_Vjc8NUrI6-QFcDWvdmF-7" value="Pouvoir se communiquer entre collaborateurs " style="whiteSpace=wrap;html=1;aspect=fixed;" parent="1" vertex="1">
      <mxGeometry x="470" y="210" width="80" height="80" as="geometry" />
    </mxCell>
    <mxCell id="_Vjc8NUrI6-QFcDWvdmF-8" value="recevoir une notification " style="whiteSpace=wrap;html=1;aspect=fixed;" parent="1" vertex="1">
      <mxGeometry x="110" y="320" width="80" height="80" as="geometry" />
    </mxCell>
    <mxCell id="_Vjc8NUrI6-QFcDWvdmF-9" value="stocker le projet" style="whiteSpace=wrap;html=1;aspect=fixed;" parent="1" vertex="1">
      <mxGeometry x="300" y="320" width="80" height="80" as="geometry" />
    </mxCell>
    <mxCell id="_Vjc8NUrI6-QFcDWvdmF-13" value="Supprimer le projet " style="whiteSpace=wrap;html=1;aspect=fixed;fillColor=none;" parent="1" vertex="1">
      <mxGeometry x="300" y="430" width="80" height="80" as="geometry" />
    </mxCell>
  </root>
</mxGraphModel>

